<svg id="Layer_1" data-name="Layer 1" xmlns="http://www.w3.org/2000/svg" viewBox="0 0 468.32 82.69"><defs><style>.cls-1{fill:#ed4b23;}.cls-2{fill:#fff;}</style></defs><path class="cls-1" d="M165.1,89.7q-11.31,0-17.84-7.49t-6.52-20.36q0-11.88,6.52-19.65a21.88,21.88,0,0,1,16.87-8q9.87,0,15.59,6.91t5.73,18.71c0,.25,0,.84,0,1.76s0,1.54,0,1.86H149.05q0,8.81,4.59,14.07a14.87,14.87,0,0,0,11.7,5.27,29.4,29.4,0,0,0,16.82-5.32l2.52,5.9Q177.24,89.7,165.1,89.7ZM149.34,57.79h28.28q0-8.2-3.72-12.64a12.18,12.18,0,0,0-9.81-4.42A12.78,12.78,0,0,0,154,45.35Q150,50,149.34,57.79Z" transform="translate(-15.84 -8.69)"/><path class="cls-1" d="M201.08,15.5V67.65c0,2.2,0,3.92,0,5.18s.11,2.54.24,3.84a12.3,12.3,0,0,0,.56,2.92,6.64,6.64,0,0,0,1,1.82,3.27,3.27,0,0,0,1.62,1.13,7.86,7.86,0,0,0,2.34.29c.39,0,1.84-.09,4.35-.29l.54,6.34a35.33,35.33,0,0,1-5.52.62,21.87,21.87,0,0,1-4.83-.46A19.94,19.94,0,0,1,198,88a5,5,0,0,1-2.4-2.27,25.42,25.42,0,0,1-1.47-3.07,16.88,16.88,0,0,1-.8-4.45c-.16-2-.26-3.81-.29-5.39s0-3.88,0-6.91V16.46Z" transform="translate(-15.84 -8.69)"/><path class="cls-1" d="M246.11,82.69q-6.24,7-16.59,7a20.72,20.72,0,0,1-6.21-.9,15.83,15.83,0,0,1-5.1-2.63,12,12,0,0,1-3.5-4.55,15.33,15.33,0,0,1-1.28-6.42q0-9.24,8.31-13.3,4.83-2.41,15.67-4.06l3.14-.43,5.31-.63v-6c0-3.26-.83-5.7-2.51-7.33S239,41,235.42,41a40.46,40.46,0,0,0-8.77,1,36.11,36.11,0,0,0-7.81,2.59l-2.22-6.38a31.31,31.31,0,0,1,8.17-2.88,47,47,0,0,1,10.44-1.13q18.71,0,18.71,15.37v39h-6.63Zm-15.71.63a19.68,19.68,0,0,0,8.48-2.18,17.73,17.73,0,0,0,7-5.65V62.43a18.65,18.65,0,0,1-2.34.37c-1.56.21-2.39.31-2.49.31-3.13.42-5.74.85-7.83,1.31A38.07,38.07,0,0,0,227.69,66,10.24,10.24,0,0,0,224,68.14a7.79,7.79,0,0,0-1.89,2.9,11.4,11.4,0,0,0-.6,3.91q0,4.26,2.39,6.31A9.59,9.59,0,0,0,230.4,83.32Z" transform="translate(-15.84 -8.69)"/><path class="cls-1" d="M297.75,74.28q-.24,7.29-5,11.36T280.2,89.7a37.15,37.15,0,0,1-10.68-1.5,25.14,25.14,0,0,1-7.69-3.48l2.08-6.19a28.37,28.37,0,0,0,3.19,1.77,33,33,0,0,0,5.18,1.76A25.46,25.46,0,0,0,279,83h.82a11.31,11.31,0,0,0,7.32-2.2,8.59,8.59,0,0,0,3.07-6.31v-.58q0-5.94-8-8.17l-7.11-2q-7.48-2.09-10.56-5.75a13.92,13.92,0,0,1-3.17-9,13.5,13.5,0,0,1,1.14-5.46,15,15,0,0,1,3.26-4.71,15.56,15.56,0,0,1,5.59-3.39A23,23,0,0,1,279,34.16a34.88,34.88,0,0,1,16,3.43l-1.93,5.85a36.65,36.65,0,0,0-13.54-2.86,11.65,11.65,0,0,0-7.34,2.28,7.5,7.5,0,0,0-2.81,6.23,6.4,6.4,0,0,0,1.79,4.45,12.25,12.25,0,0,0,5.8,2.9l7.3,2q6.67,1.78,10,5.51T297.75,74Z" transform="translate(-15.84 -8.69)"/><path class="cls-1" d="M315.65,41.12V70.75c0,5,.48,8.25,1.43,9.76s3,2.28,6.26,2.28c.26,0,.64,0,1.16-.08l2.37-.21c1.06-.1,2.08-.18,3-.25l.73,6.58q-7.15.63-9.18.63a25.4,25.4,0,0,1-3.9-.27,20.85,20.85,0,0,1-3.07-.7,7.13,7.13,0,0,1-2.37-1.28,12.89,12.89,0,0,1-1.76-1.79A7.85,7.85,0,0,1,309.11,83a26.47,26.47,0,0,1-.83-3,28.38,28.38,0,0,1-.48-3.7c-.11-1.48-.19-2.91-.22-4.28s-.05-3-.05-5V41.12h-8.07l.63-5.71h7.44l2.13-17.16,6-.43V35.41h14.07v5.71Z" transform="translate(-15.84 -8.69)"/><path class="cls-1" d="M344.19,16.17v9.57h-8.12V16.17Zm0,19.24V88.49h-8.12V35.41Z" transform="translate(-15.84 -8.69)"/><path class="cls-1" d="M391.73,84.86a16.38,16.38,0,0,1-6.38,3.6,27.05,27.05,0,0,1-18.9-1,22.28,22.28,0,0,1-8.1-6.09,28.06,28.06,0,0,1-4.88-8.82,32.15,32.15,0,0,1,.12-21.1,29,29,0,0,1,5-8.87,22.7,22.7,0,0,1,8.05-6.14,24.64,24.64,0,0,1,10.61-2.27,27.68,27.68,0,0,1,8.38,1.2,15.4,15.4,0,0,1,6.07,3.39l-2,5.75a22,22,0,0,0-12.52-3.67,15.12,15.12,0,0,0-12.21,6.06Q360,53,360,62.14t4.9,15A16,16,0,0,0,377.76,83a20.29,20.29,0,0,0,11.94-4Z" transform="translate(-15.84 -8.69)"/><path class="cls-1" d="M403.35,89.07a6,6,0,0,1-4.72-1.91,6.77,6.77,0,0,1,0-9,6.92,6.92,0,0,1,9.48,0,6.82,6.82,0,0,1,0,9A6,6,0,0,1,403.35,89.07Z" transform="translate(-15.84 -8.69)"/><path class="cls-1" d="M427.05,16.17v9.57h-8.12V16.17Zm0,19.24V88.49h-8.12V35.41Z" transform="translate(-15.84 -8.69)"/><path class="cls-1" d="M484.16,62a33.85,33.85,0,0,1-1.62,10.54,28.18,28.18,0,0,1-4.66,8.84,21.49,21.49,0,0,1-7.76,6.12,26,26,0,0,1-24.05-1.52,23.52,23.52,0,0,1-8.61-10,32.93,32.93,0,0,1-2.85-13.92,33,33,0,0,1,2.88-13.95,23.74,23.74,0,0,1,22.26-13.94,25.9,25.9,0,0,1,8.77,1.42,20.57,20.57,0,0,1,6.84,4,24.33,24.33,0,0,1,4.86,6,27.6,27.6,0,0,1,3,7.62A38.08,38.08,0,0,1,484.16,62Zm-8.41.1a35.42,35.42,0,0,0-.87-8.1,22.94,22.94,0,0,0-2.71-6.72,12.74,12.74,0,0,0-5.05-4.71,15.89,15.89,0,0,0-7.52-1.69,15.11,15.11,0,0,0-7.37,1.78A14.52,14.52,0,0,0,447,47.45a23.55,23.55,0,0,0-3,6.81,30.29,30.29,0,0,0-1,7.93A28.9,28.9,0,0,0,444,70a22.48,22.48,0,0,0,3,6.63,14.25,14.25,0,0,0,5.27,4.69A15.74,15.74,0,0,0,459.75,83a15,15,0,0,0,7.32-1.74,13.2,13.2,0,0,0,5-4.72,23,23,0,0,0,2.76-6.64A32.55,32.55,0,0,0,475.75,62.05Z" transform="translate(-15.84 -8.69)"/><path class="cls-1" d="M107.15,89.42a23.7,23.7,0,0,0,7.75-46.1c2.3-15.19-5.69-24-13-28.74a28.32,28.32,0,0,0-14.79-3.94c-6.09,0-17.08,1.92-24.3,14.33a19,19,0,0,0-10.23-3,19.63,19.63,0,0,0-11.35,3.65,19.24,19.24,0,0,0-8,17.86c-9.62,3.65-15.52,12-15.52,22.22A23.75,23.75,0,0,0,41.52,89.42Z" transform="translate(-15.84 -8.69)"/><path class="cls-1" d="M87.16,12.6a26.46,26.46,0,0,1,13.72,3.61c6.89,4.51,14.82,13.16,11.8,28.45a21.76,21.76,0,0,1-5.53,42.8H41.52A21.77,21.77,0,0,1,19.75,65.69c0-9.91,6.06-17.87,15.73-20.89a17.34,17.34,0,0,1,7-17.61,17.78,17.78,0,0,1,10.2-3.27,17.49,17.49,0,0,1,10.9,3.92C69.42,16.18,78.91,12.6,87.16,12.6m0-3.91a29,29,0,0,0-25,13.65A20.64,20.64,0,0,0,52.63,20a21.68,21.68,0,0,0-12.51,4,21,21,0,0,0-8.84,18.16,25,25,0,0,0-15.44,23.5A25.71,25.71,0,0,0,41.52,91.38h65.63A25.65,25.65,0,0,0,117,42.05c1.3-12-3.6-22.3-14-29.11-4-2.62-10.08-4.25-15.86-4.25Z" transform="translate(-15.84 -8.69)"/><path class="cls-2" d="M87.16,12.6a26.46,26.46,0,0,1,13.72,3.61c6.89,4.51,14.82,13.16,11.8,28.45a21.76,21.76,0,0,1-5.53,42.8H41.52A21.77,21.77,0,0,1,19.75,65.69c0-9.91,6.06-17.87,15.73-20.89a17.34,17.34,0,0,1,7-17.61,17.78,17.78,0,0,1,10.2-3.27,17.49,17.49,0,0,1,10.9,3.92C69.42,16.18,78.91,12.6,87.16,12.6m0-2c-6.09,0-17.08,1.92-24.3,14.33a19,19,0,0,0-10.23-3,19.63,19.63,0,0,0-11.35,3.65,19.24,19.24,0,0,0-8,17.86c-9.62,3.65-15.52,12-15.52,22.22A23.75,23.75,0,0,0,41.52,89.42h65.63a23.7,23.7,0,0,0,7.75-46.1c2.3-15.19-5.69-24-13-28.74a28.32,28.32,0,0,0-14.79-3.94Z" transform="translate(-15.84 -8.69)"/><path class="cls-2" d="M82.33,36.49a2.13,2.13,0,0,1,4.25,0V51H82.33Z" transform="translate(-15.84 -8.69)"/><path class="cls-2" d="M64.22,34.37a2.12,2.12,0,0,1,2.13,2.12V51H62.1V36.49A2.12,2.12,0,0,1,64.22,34.37Z" transform="translate(-15.84 -8.69)"/><path class="cls-2" d="M56.55,52.81v3.91a.16.16,0,0,0,.16.17h1.14v5.87A11.75,11.75,0,0,0,68.3,74.43v1.16a4.3,4.3,0,0,0,3.12,4.12v8.78a25.75,25.75,0,0,1,5.69-.78h.14v-8a4.3,4.3,0,0,0,3.13-4.12V74.43A11.74,11.74,0,0,0,90.81,62.76V56.88H92a.15.15,0,0,0,.16-.16V52.81a.17.17,0,0,0-.16-.17H56.72A.18.18,0,0,0,56.55,52.81Zm8.74,13.62a.49.49,0,0,1,.48-.49H82.9a.49.49,0,0,1,0,1H65.77A.49.49,0,0,1,65.29,66.43Zm-1.88-3.22a.49.49,0,0,1,.48-.49H84.78a.5.5,0,0,1,.49.5.49.49,0,0,1-.49.49H63.9A.49.49,0,0,1,63.41,63.21Zm0-3.23a.48.48,0,0,1,.48-.48H84.78a.49.49,0,0,1,.49.49.48.48,0,0,1-.49.48H63.89A.48.48,0,0,1,63.41,60Z" transform="translate(-15.84 -8.69)"/></svg>